# xmcd CD database file
#
# Track frame offsets:
#	150
#	15413
#	40975
#	73351
#	85544
#	108804
#	121561
#	132911
#	144575
#	157410
#	176350
#	189311
#	203925
#	217697
#	227799
#	242427
#	257588
#	272602
#	284967
#	304183
#
# Disc length: 4429 seconds
#
# Revision: 0
# Processed by: cddbd v1.5.2PL0 Copyright (c) Steve Scherf et al.
# Submitted via: CDex 1.70beta2
#
DISCID=18114b14
DTITLE=Louis Armstrong - Red Collection (disk 5)
DYEAR=2008
DGENRE=Jazz
TTITLE0=After you've gone
TTITLE1=The nearness of you
TTITLE2=Steak face
TTITLE3=Your cheatin' heart
TTITLE4=Long gone
TTITLE5=Baby, won't you please come home
TTITLE6=My heart
TTITLE7=Alexanders rag time band
TTITLE8=Before long
TTITLE9=West end blues
TTITLE10=Too busy
TTITLE11=Sweet savannah Sue
TTITLE12=Alligator crawl
TTITLE13=As long as you live, you'll be dead as you die
TTITLE14=Some day you'll be sorry
TTITLE15=Bessie couldn't help it
TTITLE16=A song was born
TTITLE17=Congratulations to someone
TTITLE18=Under a blanket of blue (with Ella Fitzgérald)
TTITLE19=Isn't this a lovely day (with Ella Fitzgérald)
EXTD=YEAR: 2008
EXTT0=
EXTT1=
EXTT2=
EXTT3=
EXTT4=
EXTT5=
EXTT6=
EXTT7=
EXTT8=
EXTT9=
EXTT10=
EXTT11=
EXTT12=
EXTT13=
EXTT14=
EXTT15=
EXTT16=
EXTT17=
EXTT18=
EXTT19=
PLAYORDER=
